<?xml version="1.0" encoding="utf-8"?>
<!-- Generator: Adobe Illustrator 19.0.0, SVG Export Plug-In . SVG Version: 6.00 Build 0)  -->
<svg version="1.1" id="Layer_1" xmlns="http://www.w3.org/2000/svg" xmlns:xlink="http://www.w3.org/1999/xlink" x="0px" y="0px"
	 viewBox="0 0 200 200" enable-background="new 0 0 200 200" xml:space="preserve">
<path id="board" fill="#4E79F4" d="M0,0v200h200V0H0z M95,150c0,24.9-20.1,45-45,45h0c-24.9,0-45-20.1-45-45v0c0-24.9,20.1-45,45-45
	h0C74.9,105,95,125.1,95,150L95,150z M95,50c0,24.9-20.1,45-45,45h0C25.1,95,5,74.9,5,50v0C5,25.1,25.1,5,50,5h0
	C74.9,5,95,25.1,95,50L95,50z M195,150c0,24.9-20.1,45-45,45h0c-24.9,0-45-20.1-45-45v0c0-24.9,20.1-45,45-45h0
	C174.9,105,195,125.1,195,150L195,150z M195,50c0,24.9-20.1,45-45,45h0c-24.9,0-45-20.1-45-45v0c0-24.9,20.1-45,45-45h0
	C174.9,5,195,25.1,195,50L195,50z"/>
<path id="red_1_" fill="#FF0000" d="M50,105L50,105c-24.9,0-45,20.1-45,45v0c0,24.9,20.1,45,45,45h0c24.9,0,45-20.1,45-45v0
	C95,125.1,74.9,105,50,105z"/>
<path id="red" fill="#FF0000" d="M150,5L150,5c-24.9,0-45,20.1-45,45v0c0,24.9,20.1,45,45,45h0c24.9,0,45-20.1,45-45v0
	C195,25.1,174.9,5,150,5z"/>
<path id="yellow" fill="#FFFF00" d="M150,105L150,105c-24.9,0-45,20.1-45,45v0c0,24.9,20.1,45,45,45h0c24.9,0,45-20.1,45-45v0
	C195,125.1,174.9,105,150,105z"/>
</svg>
